<svg width="285" height="195" viewBox="0 0 285 195" fill="none" xmlns="http://www.w3.org/2000/svg">
<path d="M185.591 0.0822912C183.947 0.198429 183.196 0.32481 182.41 0.615155C181.686 0.878174 180.283 1.17877 178.973 1.34957C178.232 1.44179 178.097 1.48277 177.766 1.69113C177.46 1.88242 177.094 2.02932 176.146 2.33675C175.702 2.48363 175.136 2.68174 174.888 2.7808C174.643 2.87986 174.354 2.98917 174.25 3.01991C174.064 3.0814 173.254 3.4708 172.596 3.8158C172.416 3.91144 172.165 4.02759 172.034 4.07541C171.755 4.1813 170.793 4.65949 170.669 4.76197C170.489 4.90543 170.269 5.02842 169.91 5.18896C169 5.59544 168.707 5.7389 168.58 5.84821C168.376 6.01559 168.059 6.22395 167.815 6.34692C167.459 6.52113 167.015 6.791 166.598 7.08476C166.381 7.23847 166.029 7.46389 165.815 7.59028C165.601 7.71325 165.315 7.91137 165.177 8.03093C165.04 8.15048 164.84 8.29736 164.736 8.36226C164.36 8.58771 163.985 8.84729 163.837 8.97367C163.754 9.04882 163.378 9.30161 163.006 9.54072C162.52 9.85156 162.285 10.0258 162.182 10.1453C162.003 10.3605 161.72 10.5723 161.406 10.7363C161.224 10.8285 161.079 10.9446 160.851 11.1769C160.682 11.3511 160.393 11.597 160.203 11.7303C160.017 11.8601 159.769 12.0548 159.652 12.1607C159.538 12.2631 159.352 12.4168 159.238 12.4988C159.124 12.5808 158.831 12.8404 158.583 13.0795C158.338 13.3186 157.863 13.7422 157.532 14.0223C157.201 14.3024 156.587 14.8626 156.167 15.2656C155.75 15.6687 155.27 16.1298 155.098 16.2904C154.929 16.4509 154.498 16.8779 154.136 17.24C153.778 17.6055 153.319 18.0427 153.119 18.2135C152.923 18.3877 152.706 18.5892 152.64 18.6644C152.454 18.8728 152.123 19.1836 151.896 19.3578C151.782 19.4466 151.658 19.5559 151.62 19.6037C151.489 19.7745 151.065 20.1981 150.855 20.3689C150.741 20.4645 150.575 20.6353 150.489 20.748C150.313 20.9803 149.976 21.3117 149.724 21.4995C149.631 21.5713 149.459 21.7386 149.341 21.8753C149.135 22.111 148.783 22.4423 148.58 22.5858C148.524 22.6233 148.431 22.7156 148.373 22.7941C148.249 22.9512 147.931 23.2792 147.601 23.5866C147.48 23.6993 147.29 23.9111 147.183 24.0546C147.073 24.198 146.87 24.4098 146.735 24.5225C146.38 24.8197 145.36 25.8274 145.129 26.1075C144.939 26.3364 144.522 26.695 144.333 26.794C144.281 26.818 144.126 26.9819 143.985 27.1527C143.847 27.3235 143.605 27.5797 143.443 27.7163C143.285 27.8564 143.04 28.0955 142.902 28.2526C142.764 28.4097 142.54 28.6386 142.402 28.7582C142.264 28.8811 142.023 29.1202 141.865 29.2944C141.706 29.4687 141.461 29.7146 141.32 29.841C141.179 29.9674 140.968 30.1928 140.848 30.3397C140.73 30.4866 140.517 30.7086 140.372 30.835C140.231 30.9614 139.707 31.4635 139.214 31.952C138.717 32.4404 138.2 32.9323 138.066 33.0416C137.928 33.1509 137.738 33.3388 137.645 33.4549C137.214 33.9946 135.96 35.2311 135.76 35.3063C135.736 35.3131 135.632 35.4327 135.525 35.5659C135.36 35.7811 134.088 37.0552 133.695 37.4036C133.619 37.4719 133.443 37.653 133.302 37.8067C133.161 37.9638 132.923 38.1893 132.774 38.3122C132.626 38.4352 132.454 38.606 132.395 38.6948C132.337 38.7802 132.085 39.05 131.833 39.296C131.351 39.7674 130.748 40.5257 130.748 40.6555C130.751 40.8024 130.947 41.6358 130.999 41.711C131.027 41.7554 131.185 41.9193 131.351 42.0799C131.516 42.2404 131.785 42.5069 131.951 42.6777C132.275 43.0124 132.475 43.2105 132.733 43.4462C132.826 43.5316 133.009 43.7161 133.14 43.8561C133.657 44.4129 134.164 44.9116 134.56 45.2634C134.791 45.4616 135.032 45.7007 135.101 45.7929C135.243 45.9808 135.649 46.377 135.901 46.5751C136.073 46.7083 136.601 47.2344 137.021 47.6921C137.373 48.0747 137.659 48.3479 137.911 48.5495C138.038 48.6485 138.259 48.8535 138.4 49.0004C138.542 49.1438 138.835 49.4376 139.048 49.6494C139.259 49.8611 139.434 50.049 139.434 50.0661C139.434 50.0866 139.61 50.2506 139.82 50.435C140.034 50.6229 140.272 50.8415 140.348 50.9269C140.699 51.3163 140.913 51.5281 141.072 51.651C141.168 51.7262 141.658 52.1873 142.161 52.6792C142.664 53.1711 143.181 53.6664 143.309 53.7757C143.44 53.8884 143.626 54.0865 143.726 54.2197C143.826 54.353 144.005 54.5545 144.122 54.6672C144.243 54.7799 144.429 54.9644 144.533 55.0737C144.788 55.3401 145.267 55.8149 146.125 56.6552C146.511 57.031 146.921 57.4443 147.035 57.5741C147.149 57.7005 147.349 57.8849 147.487 57.984C147.621 58.083 147.887 58.329 148.073 58.5339C148.259 58.7355 148.504 58.9882 148.617 59.0907C148.728 59.1932 148.907 59.3913 149.017 59.5348C149.128 59.6748 149.321 59.89 149.452 60.0096C149.583 60.1291 149.876 60.4058 150.103 60.6244C150.331 60.843 150.624 61.1129 150.755 61.2222C150.886 61.3349 151.041 61.5023 151.103 61.5979C151.234 61.796 151.616 62.1752 151.841 62.3221C151.923 62.3767 152.116 62.5578 152.265 62.7217C152.416 62.8891 152.668 63.1385 152.823 63.2751C152.982 63.4151 153.192 63.6235 153.295 63.7431C153.636 64.1359 154.857 65.3246 155.088 65.4851C155.212 65.574 155.419 65.7277 155.543 65.8301C155.891 66.1136 155.925 66.1205 156.208 65.9804C156.953 65.6149 157.032 65.5603 157.384 65.1811C157.57 64.9796 157.921 64.6243 158.166 64.3887C158.411 64.153 158.7 63.8489 158.811 63.7191C158.917 63.5859 159.259 63.2478 159.566 62.9677C160.22 62.3665 160.527 62.0727 160.862 61.7209C160.996 61.5808 161.282 61.311 161.499 61.1231C162.006 60.6825 162.289 60.4024 162.754 59.8763C163.195 59.3845 163.116 59.463 163.85 58.7662C164.529 58.124 165.977 56.6825 166.877 55.7569C167.225 55.3982 167.621 55.0122 167.752 54.8995C167.887 54.7868 168.118 54.5647 168.27 54.4042C168.421 54.2436 168.659 54.0182 168.797 53.8986C168.938 53.7825 169.355 53.3794 169.728 53.0037C170.103 52.628 170.71 52.0404 171.079 51.6989C171.803 51.0293 172.327 50.5033 173.22 49.5605C173.757 48.9935 175.091 47.675 175.802 47.0158C176.177 46.6639 176.425 46.4214 176.832 45.9978C176.994 45.8305 177.349 45.4786 177.625 45.2122C178.128 44.7237 179.214 43.6307 180.214 42.6059C180.838 41.9603 181.472 41.4411 182.265 40.9185C182.475 40.7819 182.73 40.5906 182.834 40.4915C182.937 40.3959 183.092 40.2695 183.178 40.2183C183.402 40.0748 185.185 39.1867 185.471 39.0774C185.746 38.9681 186.767 38.7187 187.556 38.565C187.849 38.5069 188.284 38.4215 188.521 38.3703L188.952 38.2781L189.473 38.3498C189.759 38.3908 190.062 38.4523 190.145 38.4899C190.393 38.5992 190.979 38.7529 191.641 38.8861C192.551 39.0671 193.075 39.2413 193.42 39.4736C193.503 39.5317 193.792 39.6922 194.064 39.8357C194.606 40.1226 194.781 40.2353 195.088 40.4915C195.202 40.5872 195.416 40.7306 195.564 40.8092C195.912 40.9937 196.181 41.202 196.457 41.4924C196.574 41.6188 196.874 41.892 197.122 42.1004C197.908 42.7562 198.587 43.4496 199.442 44.4641C199.931 45.0482 200.073 45.2429 200.359 45.7314C200.486 45.9466 200.673 46.2301 200.773 46.3633C201.076 46.7562 201.414 47.5008 201.638 48.2694C201.683 48.4333 201.789 48.7032 201.876 48.8671C202.124 49.3624 202.238 49.7621 202.362 50.6092C202.475 51.3743 202.475 51.9482 202.362 52.7031C202.258 53.3999 202.172 53.6664 201.879 54.1719C201.769 54.3598 201.693 54.5647 201.589 54.9473C201.331 55.8969 201.079 56.4947 200.814 56.7953C200.638 56.99 200.369 57.3555 200.145 57.6936C200.052 57.8337 199.883 58.0523 199.763 58.1855C199.645 58.3153 199.476 58.5476 199.387 58.6979C199.28 58.8789 199.111 59.0873 198.883 59.3127C198.694 59.5006 198.449 59.7773 198.332 59.9276C198.108 60.2248 197.215 61.1436 196.781 61.5262C196.629 61.656 196.402 61.8917 196.274 62.0454C196.074 62.2879 195.743 62.5851 195.495 62.7525C195.45 62.7798 195.323 62.9301 195.205 63.0838C195.002 63.3537 194.716 63.6235 194.454 63.7875C194.385 63.8285 194.24 63.9719 194.133 64.0983C193.985 64.2828 192.665 65.632 191.72 66.5645C191.221 67.0632 190.435 67.8011 190.273 67.9274C190.166 68.0094 190 68.1734 189.9 68.2895C189.673 68.5594 188.349 69.8779 188.139 70.0487C188.053 70.117 187.918 70.2605 187.846 70.3629C187.773 70.4654 187.501 70.7592 187.246 71.012C186.991 71.2681 186.691 71.579 186.581 71.7054C186.47 71.8283 186.239 72.0572 186.064 72.2109C185.888 72.3646 185.36 72.8667 184.885 73.3313C184.412 73.7924 183.951 74.2228 183.861 74.2877C183.771 74.3492 183.595 74.5337 183.468 74.6976C183.244 74.9743 182.337 75.9 181.696 76.4944C181.534 76.6447 181.293 76.8769 181.162 77.0101C180.09 78.093 178.711 79.4285 178.539 79.5413C178.38 79.6506 178.297 79.736 178.194 79.9102C178.028 80.1971 177.784 80.4499 177.487 80.648C177.349 80.7402 177.16 80.9179 176.998 81.1057C176.436 81.7684 175.615 82.5369 175.24 82.7556C175.188 82.7863 174.981 83.0527 174.778 83.3465L174.412 83.8828L174.564 84.4054C174.736 85.0032 174.778 85.0715 175.291 85.5975C175.464 85.7751 175.684 86.004 175.781 86.1031C175.877 86.2055 176.088 86.3866 176.246 86.513C176.405 86.6359 176.591 86.8101 176.663 86.8989C176.818 87.0936 177.08 87.3362 177.387 87.5685C177.511 87.6607 177.711 87.869 177.835 88.0262C177.997 88.2277 178.159 88.3848 178.394 88.559C178.576 88.6957 178.787 88.8801 178.859 88.9689C179 89.1466 179.404 89.5531 179.68 89.799C179.776 89.8844 179.952 90.0688 180.073 90.2055C180.193 90.3421 180.414 90.5539 180.562 90.6734C180.71 90.7964 180.917 91.0082 181.024 91.1482C181.127 91.2883 181.31 91.483 181.427 91.5821C181.544 91.6811 181.751 91.8758 181.886 92.0124C182.017 92.1525 182.268 92.4019 182.437 92.5658C182.61 92.7332 182.83 92.9518 182.934 93.0543C183.385 93.5052 183.847 93.9595 183.978 94.0859C184.054 94.161 184.244 94.3557 184.399 94.5162C184.55 94.6768 184.774 94.8783 184.892 94.9671C185.012 95.0559 185.191 95.237 185.298 95.3804C185.402 95.5205 185.574 95.7084 185.684 95.8006C185.795 95.8894 185.998 96.0841 186.143 96.231C186.412 96.5077 186.753 96.8493 187.184 97.2694C187.322 97.406 187.67 97.7579 187.953 98.0516C188.239 98.3454 188.608 98.7177 188.777 98.8817C188.942 99.0422 189.263 99.3531 189.483 99.5717C189.704 99.7903 190 100.06 190.142 100.176C190.283 100.292 190.455 100.467 190.521 100.566C190.586 100.661 190.779 100.877 190.945 101.037C191.114 101.198 191.462 101.536 191.72 101.789C191.979 102.045 192.265 102.308 192.355 102.379C192.444 102.448 192.665 102.68 192.844 102.895C193.023 103.107 193.216 103.309 193.268 103.343C193.32 103.377 193.602 103.637 193.889 103.92C194.178 104.204 194.509 104.528 194.626 104.641C194.74 104.753 194.971 104.982 195.136 105.153C195.302 105.321 195.536 105.553 195.657 105.669C195.781 105.782 196.012 106.011 196.174 106.181C196.336 106.349 196.56 106.574 196.674 106.677C196.788 106.779 196.998 106.987 197.139 107.134C197.281 107.285 197.518 107.513 197.667 107.64C197.815 107.77 198.046 108.016 198.187 108.186C198.325 108.361 198.47 108.525 198.504 108.559C198.539 108.589 198.804 108.747 199.087 108.911L199.604 109.208L199.759 109.156C200.621 108.876 200.69 108.842 201.059 108.535C201.255 108.371 201.558 108.08 201.734 107.893C201.907 107.701 202.303 107.298 202.606 106.998C202.913 106.697 203.279 106.328 203.416 106.178C203.554 106.028 203.782 105.806 203.916 105.683C204.051 105.56 204.278 105.331 204.416 105.17C204.74 104.808 204.771 104.774 205.199 104.402C205.395 104.231 205.802 103.821 206.109 103.486C206.412 103.151 206.774 102.789 206.908 102.68C207.043 102.571 207.332 102.298 207.55 102.075C207.767 101.85 208.304 101.324 208.746 100.9C209.707 99.9747 211.459 98.2053 211.841 97.7681C211.993 97.5973 212.279 97.3309 212.479 97.1737C212.679 97.02 212.941 96.7844 213.065 96.6511C213.189 96.5213 213.544 96.1593 213.858 95.8484C214.171 95.5376 214.627 95.0559 214.868 94.7793C215.109 94.506 215.392 94.2191 215.492 94.1439C216.012 93.7545 216.374 93.4027 217.139 92.5556C217.339 92.3335 217.657 92.0193 217.843 91.8519C218.029 91.6879 218.284 91.4454 218.408 91.3156C218.532 91.1858 218.87 90.8511 219.159 90.5675C219.783 89.9629 221.49 88.2721 221.838 87.9135C221.972 87.7768 222.269 87.5206 222.493 87.3498C222.782 87.1278 222.979 86.9468 223.144 86.7384C223.406 86.4173 224.385 85.478 224.871 85.0749C225.044 84.9348 225.213 84.788 225.251 84.7436C225.371 84.6104 225.723 84.3473 226.078 84.1287C226.267 84.0126 226.516 83.8281 226.629 83.7222C226.978 83.3943 227.271 83.2235 227.97 82.9434C228.177 82.8614 228.436 82.7419 228.546 82.677C228.949 82.431 229.463 82.2227 230.111 82.0348C230.473 81.9323 230.969 81.7889 231.214 81.7171L231.662 81.5873L232.714 81.5839C234.003 81.5839 234.472 81.6454 235.085 81.8913C235.844 82.1954 236.774 82.6052 237.212 82.8273C237.457 82.9537 237.822 83.1313 238.022 83.2235C238.436 83.4114 238.608 83.5207 238.901 83.7701C239.015 83.8657 239.18 83.9921 239.267 84.0502C239.487 84.2005 240.221 84.7777 240.645 85.1364C241.228 85.6283 242.293 86.6906 242.948 87.4284C243.544 88.1013 243.727 88.3643 244.086 89.0304C244.144 89.1432 244.296 89.3584 244.417 89.5086C244.792 89.9664 245.151 90.7213 245.627 92.0364C245.83 92.5966 246.044 93.9868 246.075 94.9398L246.095 95.5547L245.957 96.0841C245.882 96.3745 245.785 96.8356 245.744 97.1089C245.661 97.6417 245.389 98.5333 245.185 98.9329C244.982 99.3326 244.665 99.862 244.486 100.098C244.386 100.228 244.213 100.497 244.103 100.695C243.841 101.167 243.682 101.399 243.451 101.645C243.345 101.758 243.169 101.97 243.055 102.116C242.941 102.26 242.714 102.52 242.548 102.69C242.379 102.861 242.183 103.076 242.107 103.172C242.035 103.264 241.583 103.736 241.107 104.214C240.632 104.692 240.059 105.286 239.839 105.532C239.618 105.778 239.18 106.215 238.86 106.506C238.543 106.793 238.143 107.175 237.97 107.356C237.581 107.766 237.06 108.282 236.333 108.982C236.019 109.283 235.492 109.812 235.161 110.157C234.83 110.502 234.358 110.96 234.117 111.175C233.875 111.39 233.469 111.797 233.213 112.084C232.834 112.511 232.024 113.286 231.917 113.327C231.904 113.334 231.71 113.546 231.49 113.799C231.269 114.051 230.766 114.553 230.376 114.916C229.983 115.278 229.459 115.8 229.208 116.074C228.956 116.347 228.584 116.719 228.381 116.893C227.926 117.286 227.381 117.822 226.853 118.389C226.498 118.775 226.23 119.035 225.209 119.995C225.04 120.155 224.761 120.442 224.592 120.634C224.42 120.825 224.013 121.225 223.682 121.525C223.351 121.822 223.034 122.126 222.975 122.202C222.824 122.4 219.787 125.402 219.425 125.71C219.256 125.856 218.704 126.396 218.201 126.909C217.698 127.421 217.139 127.974 216.957 128.135C216.774 128.299 216.405 128.675 216.14 128.972C215.833 129.317 215.506 129.638 215.247 129.853C215.023 130.037 214.709 130.328 214.547 130.495C214.171 130.891 212.999 132.053 212.6 132.429C212.282 132.726 210.99 134.031 210.273 134.772C210.056 135.001 209.728 135.305 209.549 135.448C209.37 135.595 209.128 135.824 209.011 135.957C208.604 136.432 207.818 137.156 207.45 137.399L207.095 137.631L206.571 137.59C206.284 137.562 206.019 137.528 205.981 137.508C205.754 137.395 204.944 136.685 204.354 136.083C204.161 135.885 203.958 135.68 203.902 135.626C203.847 135.571 203.589 135.318 203.33 135.062C202.772 134.509 202.799 134.536 202.403 134.171C202.234 134.01 202.017 133.791 201.927 133.686C201.838 133.58 201.655 133.399 201.524 133.286C201.39 133.173 201.145 132.924 200.976 132.733C200.707 132.425 200.614 132.343 200.159 132.046C199.876 131.861 199.628 131.711 199.607 131.711C199.587 131.711 199.345 131.773 199.07 131.848C198.584 131.981 198.57 131.988 198.387 132.162C198.284 132.261 198.139 132.429 198.063 132.531C197.987 132.633 197.715 132.927 197.463 133.18C197.208 133.433 196.688 133.959 196.305 134.345C195.919 134.731 195.533 135.096 195.447 135.154C195.357 135.212 195.188 135.373 195.068 135.51C194.947 135.643 194.733 135.865 194.595 135.995C193.854 136.709 192.796 137.761 192.679 137.907C192.603 137.996 192.434 138.153 192.299 138.252C192.024 138.457 191.72 138.761 191.569 138.983C191.514 139.065 191.365 139.226 191.238 139.342C191.11 139.458 190.879 139.694 190.724 139.865C190.572 140.039 190.335 140.264 190.197 140.367C190.059 140.469 189.855 140.654 189.745 140.784C189.631 140.91 189.418 141.129 189.269 141.272C188.766 141.754 188.508 142.017 187.815 142.744C187.436 143.141 187.046 143.527 186.95 143.598C186.853 143.67 186.667 143.851 186.536 143.998C186.405 144.145 186.174 144.38 186.026 144.521C185.874 144.661 185.547 144.975 185.298 145.221C185.047 145.463 184.75 145.75 184.64 145.853C184.526 145.955 184.343 146.153 184.237 146.287C184.126 146.423 183.947 146.601 183.84 146.679C183.485 146.942 183.24 147.161 183.099 147.352C183.023 147.458 182.844 147.649 182.703 147.783C182.565 147.912 182.341 148.148 182.206 148.302C182.072 148.459 181.862 148.664 181.734 148.763C181.417 149.009 181.234 149.18 181.02 149.446C180.917 149.573 180.727 149.76 180.6 149.863C180.272 150.126 180.145 150.249 179.959 150.478C179.766 150.717 178.621 151.847 178.435 151.988C178.266 152.114 177.984 152.411 177.866 152.589C177.742 152.777 177.518 153.002 177.249 153.214C177.125 153.309 176.963 153.46 176.887 153.542C176.812 153.624 176.584 153.853 176.384 154.051C176.184 154.249 175.922 154.525 175.798 154.666C175.543 154.959 175.436 155.062 175.198 155.246C174.936 155.444 174.757 155.649 174.612 155.912C174.54 156.042 174.399 156.278 174.295 156.435L174.109 156.718L174.292 157.251L174.471 157.781L174.716 158.013C174.847 158.143 175.043 158.314 175.147 158.392C175.388 158.58 176.412 159.567 176.667 159.858C176.774 159.981 177.005 160.203 177.18 160.353C177.356 160.503 177.573 160.718 177.66 160.831C177.98 161.251 178.294 161.596 178.428 161.685C178.67 161.842 179.169 162.31 179.445 162.635C179.783 163.027 180.007 163.25 180.417 163.584C180.593 163.731 180.821 163.95 180.92 164.069C181.131 164.319 181.344 164.534 182.113 165.255C182.423 165.545 182.761 165.873 182.868 165.979C182.972 166.088 183.206 166.317 183.385 166.491C183.564 166.665 183.83 166.928 183.971 167.079C184.592 167.731 185.526 168.657 185.774 168.865C185.922 168.988 186.174 169.237 186.329 169.419C186.488 169.6 186.698 169.822 186.798 169.917C187.208 170.296 188.084 171.181 188.215 171.342C188.339 171.499 188.856 171.97 189.132 172.178C189.194 172.226 189.321 172.36 189.414 172.476C189.504 172.592 189.697 172.797 189.835 172.93C189.976 173.067 190.338 173.415 190.641 173.705C190.945 173.999 191.227 174.262 191.272 174.293C191.314 174.32 191.434 174.447 191.534 174.573C191.865 174.976 193.892 176.978 194.413 177.415C194.537 177.517 194.678 177.661 194.733 177.736C194.864 177.917 195.336 178.392 195.771 178.778C195.971 178.955 196.284 179.273 196.47 179.478C196.867 179.919 197.243 180.291 197.539 180.537C197.656 180.633 197.853 180.834 197.977 180.984C198.101 181.135 198.563 181.603 199.004 182.026C199.442 182.45 199.866 182.863 199.945 182.949C200.052 183.068 200.676 183.683 200.948 183.939C200.969 183.956 201.169 184.151 201.396 184.373C201.62 184.595 202.072 185.029 202.393 185.34C202.713 185.651 203.041 185.972 203.117 186.054C203.196 186.136 203.389 186.347 203.551 186.522C203.896 186.89 205.512 188.438 205.798 188.67L205.998 188.831L206.536 188.896L207.074 188.96L207.484 188.663C207.801 188.434 208.056 188.199 208.615 187.632C209.011 187.225 209.504 186.706 209.707 186.474C209.914 186.245 210.3 185.869 210.566 185.637C210.831 185.408 211.193 185.07 211.369 184.885C211.548 184.704 211.796 184.458 211.921 184.339C212.048 184.223 212.834 183.451 213.672 182.624C215.171 181.142 215.905 180.428 216.343 180.028C216.467 179.915 216.657 179.704 216.767 179.56C216.877 179.413 217.129 179.143 217.333 178.962C217.825 178.511 218.501 177.842 218.853 177.456C219.011 177.282 219.27 177.032 219.425 176.903C219.583 176.773 219.787 176.585 219.876 176.486C220.356 175.977 223.854 172.482 224.285 172.086C224.399 171.984 224.62 171.786 224.775 171.649C224.93 171.509 225.189 171.243 225.351 171.051C225.513 170.86 225.792 170.573 225.974 170.413C226.323 170.112 227.126 169.309 227.415 168.971C227.508 168.865 227.688 168.698 227.812 168.599C228.225 168.261 228.367 168.131 228.615 167.844C228.901 167.516 229.646 166.758 230.632 165.798C231.007 165.429 231.69 164.752 232.145 164.298C232.6 163.844 233.086 163.372 233.227 163.253C233.365 163.133 233.62 162.864 233.789 162.652C234.158 162.191 234.344 161.992 234.647 161.753C234.772 161.654 235.206 161.251 235.613 160.855C236.019 160.462 236.45 160.056 236.574 159.953C236.698 159.851 237.24 159.325 237.781 158.782C239.242 157.313 239.67 156.889 239.918 156.657C240.042 156.544 240.439 156.155 240.797 155.793C241.159 155.434 241.593 155.021 241.762 154.877C241.935 154.734 242.197 154.464 242.355 154.273C242.51 154.081 242.79 153.784 242.976 153.617C243.276 153.344 243.648 152.975 244.648 151.967C244.803 151.806 245.044 151.591 245.178 151.492C245.309 151.39 245.482 151.222 245.558 151.12C245.706 150.915 247.898 148.742 248.27 148.432C248.398 148.322 248.66 148.056 248.856 147.837C249.298 147.342 250.07 146.573 250.363 146.341C250.487 146.242 250.649 146.082 250.725 145.986C251.059 145.559 251.249 145.361 251.611 145.057C251.824 144.876 252.204 144.527 252.448 144.275C253.321 143.393 253.486 143.236 253.693 143.079C253.81 142.994 254 142.799 254.117 142.652C254.482 142.184 258.243 138.468 258.853 137.969C259.077 137.788 259.26 137.6 259.398 137.416C259.512 137.262 259.756 136.995 259.939 136.825C260.449 136.343 261.146 135.646 261.339 135.417C261.576 135.137 261.838 134.888 262.124 134.659C262.259 134.553 262.431 134.396 262.507 134.311C262.586 134.225 262.817 133.993 263.024 133.795C263.231 133.597 263.958 132.876 264.644 132.193C265.33 131.51 266.137 130.707 266.437 130.41C266.733 130.113 266.978 129.856 266.978 129.836C266.978 129.819 267.123 129.679 267.299 129.525C267.471 129.371 267.736 129.108 267.881 128.941C268.188 128.589 268.16 128.616 268.495 128.33C268.97 127.926 269.567 127.325 269.887 126.929C270.063 126.71 270.367 126.382 270.56 126.195C270.753 126.007 271.07 125.655 271.263 125.409C271.456 125.166 271.773 124.804 271.966 124.606C272.362 124.2 272.414 124.142 272.659 123.786C272.759 123.646 272.924 123.438 273.031 123.325C273.138 123.213 273.328 122.98 273.459 122.813C273.586 122.642 273.814 122.365 273.962 122.198C274.114 122.027 274.324 121.768 274.434 121.617C274.541 121.467 274.755 121.208 274.903 121.044C275.055 120.876 275.258 120.61 275.358 120.446C275.634 119.988 275.961 119.53 276.213 119.26C276.437 119.015 276.482 118.946 276.82 118.355C276.909 118.195 277.078 117.942 277.195 117.792C277.313 117.641 277.568 117.272 277.764 116.972C278.112 116.442 278.26 116.22 278.474 115.913C278.533 115.834 278.671 115.595 278.784 115.384C278.898 115.175 279.074 114.898 279.171 114.776C279.412 114.472 279.464 114.369 279.65 113.853C279.822 113.365 280.015 113.016 280.343 112.586C280.549 112.316 280.584 112.241 280.801 111.636C281.049 110.94 281.18 110.642 281.422 110.226C281.88 109.443 281.942 109.31 282.142 108.706C282.252 108.367 282.376 107.947 282.418 107.773C282.514 107.367 282.604 107.114 282.859 106.519C283.097 105.97 283.304 105.399 283.476 104.815C283.541 104.59 283.635 104.313 283.683 104.2C283.735 104.077 283.817 103.718 283.886 103.326C283.948 102.96 284.041 102.475 284.093 102.25C284.141 102.024 284.221 101.648 284.265 101.413C284.389 100.764 284.507 100.248 284.645 99.739C284.714 99.4863 284.789 99.1925 284.817 99.09C284.903 98.7621 284.934 98.3556 284.975 97.0576C285.024 95.459 284.996 92.6478 284.92 91.7836C284.862 91.1004 284.803 90.7759 284.572 89.8673C284.486 89.5394 284.372 88.9997 284.314 88.6718C284.076 87.2918 283.934 86.6633 283.379 84.4703C283.242 83.9238 283.145 83.6744 282.683 82.677C282.611 82.5267 282.432 82.0143 282.28 81.5395C281.887 80.2962 281.742 79.9443 281.466 79.5618C281.287 79.309 281.149 79.0186 281.029 78.6224C280.877 78.1203 280.636 77.5703 280.511 77.4337C280.177 77.0648 279.977 76.7198 279.677 75.9683C279.557 75.6711 279.408 75.3842 279.257 75.1485C279.126 74.9504 278.953 74.6703 278.871 74.5268C278.791 74.3834 278.616 74.1169 278.485 73.9325C278.35 73.7514 278.185 73.5055 278.116 73.3859C277.819 72.8838 277.402 72.2416 277.23 72.0196C277.126 71.8864 276.964 71.6336 276.871 71.4492C276.682 71.0905 276.523 70.8719 276.199 70.5337C276.082 70.4108 275.906 70.1717 275.803 70.0043C275.527 69.5397 275.265 69.1776 275.013 68.9044C274.889 68.7711 274.71 68.5321 274.617 68.3749C274.351 67.9275 274.258 67.8011 274.01 67.5449C273.883 67.4117 273.703 67.2067 273.61 67.0837C273.517 66.9608 273.304 66.7148 273.131 66.5372C272.959 66.3596 272.711 66.0727 272.58 65.9053C272.445 65.7345 272.231 65.4783 272.097 65.328C271.835 65.0377 271.811 65.0035 271.321 64.375C271.139 64.1427 270.884 63.8592 270.749 63.7465C270.456 63.4937 270.26 63.2785 270.06 62.9882C269.98 62.8686 269.829 62.7046 269.729 62.6261C269.629 62.5475 269.415 62.3392 269.253 62.165C269.091 61.9873 268.781 61.6662 268.56 61.451C268.34 61.2324 268.085 60.966 267.991 60.8567C267.902 60.7474 267.688 60.5527 267.516 60.4229C267.223 60.2009 266.106 59.1385 265.716 58.715C265.623 58.6125 265.416 58.428 265.254 58.3051C265.092 58.1821 264.762 57.8918 264.513 57.6561C264.269 57.4204 263.883 57.0685 263.658 56.8704C263.434 56.6723 263.11 56.3854 262.935 56.2282C262.759 56.0745 262.511 55.873 262.376 55.7842C262.245 55.6988 262.042 55.5382 261.928 55.4358C261.814 55.3333 261.604 55.1557 261.463 55.043C261.321 54.9336 261.049 54.6945 260.859 54.5135C260.67 54.329 260.349 54.0729 260.149 53.9396C259.946 53.8064 259.667 53.5946 259.529 53.4648C259.387 53.335 259.198 53.1881 259.101 53.1301C258.874 53.0003 258.626 52.8261 258.412 52.6519C257.867 52.201 257.423 51.8833 256.933 51.6066C256.823 51.5417 256.626 51.3983 256.495 51.2855C256.247 51.0703 256.185 51.0294 255.416 50.6024C255.154 50.4555 254.858 50.271 254.761 50.1925C254.396 49.8987 253.941 49.5913 253.776 49.5264C253.541 49.4342 253.214 49.2702 253.003 49.137C252.772 48.9901 251.98 48.5324 251.59 48.324C251.425 48.2318 251.238 48.1225 251.176 48.0781C251.014 47.9551 250.832 47.8595 250.397 47.6716C250.053 47.5247 249.48 47.2446 248.867 46.9235C248.67 46.821 248.053 46.582 247.195 46.2779C246.885 46.1686 246.519 46.0149 246.378 45.9398C245.982 45.7246 245.52 45.5333 245.054 45.3898C244.13 45.1063 243.286 44.8638 242.676 44.7101C242.014 44.5427 241.552 44.3651 241.225 44.1567C240.89 43.9449 240.08 42.9783 239.904 42.582C239.749 42.237 239.639 41.8203 239.535 41.1952C239.387 40.2968 239.184 39.6102 238.974 39.2926C238.715 38.9066 238.563 38.5445 238.332 37.7315C238.012 36.6248 237.967 36.5087 237.708 36.1158C237.436 35.7025 236.864 34.5685 236.371 33.472C236.219 33.1372 235.995 32.7752 235.719 32.4165C235.575 32.2252 235.327 31.7368 235.192 31.3747C235.044 30.9785 234.878 30.7018 234.616 30.4148C234.327 30.1006 234.058 29.677 233.896 29.2842C233.786 29.0143 233.741 28.9495 233.493 28.7035C233.306 28.5191 233.155 28.3278 233.034 28.1228C232.776 27.6822 232.634 27.4704 232.448 27.2347C232.359 27.122 232.121 26.8009 231.921 26.5208C231.721 26.2441 231.48 25.923 231.386 25.8069C231.114 25.4824 230.914 25.2091 230.749 24.9495C230.666 24.8163 230.494 24.5977 230.366 24.4611C230.239 24.3244 230.042 24.0853 229.935 23.9316C229.828 23.7779 229.573 23.4807 229.37 23.2758C229.166 23.0674 228.973 22.8454 228.939 22.7805C228.818 22.5482 228.425 22.0802 228.046 21.7181C227.801 21.4859 227.557 21.2092 227.381 20.9632C227.174 20.6797 226.919 20.3996 226.402 19.8941C226.019 19.5184 225.561 19.0299 225.382 18.8078C225.202 18.5892 225.04 18.4082 225.023 18.4082C225.002 18.4082 224.509 17.9368 223.93 17.3595C223.348 16.7823 222.765 16.2187 222.631 16.1094C222.5 16 222.179 15.7063 221.924 15.4603C221.666 15.211 221.31 14.8865 221.135 14.7362C220.955 14.5859 220.6 14.2614 220.342 14.012C220.083 13.7661 219.804 13.5133 219.718 13.4518C219.546 13.3289 218.956 12.8028 218.425 12.2973C218.225 12.106 217.915 11.8566 217.684 11.7063C217.439 11.5458 217.195 11.3477 217.043 11.1906C216.884 11.0266 216.657 10.8456 216.405 10.6816C216.188 10.5416 215.909 10.3434 215.788 10.2409C215.664 10.1385 215.416 9.94378 215.237 9.81057C215.057 9.67393 214.771 9.44849 214.599 9.30503C214.116 8.90196 213.668 8.57745 213.272 8.33834C213.072 8.21879 212.831 8.06165 212.737 7.98991C212.641 7.9216 212.493 7.82597 212.41 7.78498C212.182 7.67226 211.693 7.35459 211.497 7.19063C211.328 7.05058 211.104 6.91053 210.704 6.69191C210.162 6.39474 209.876 6.20686 209.508 5.90286C209.339 5.76622 209.194 5.68425 208.973 5.60227C208.418 5.39732 207.791 5.0728 207.515 4.84736C207.374 4.73122 207.201 4.60826 207.132 4.57069C206.984 4.49895 206.04 4.12323 205.843 4.06174C205.678 4.0105 205.174 3.76797 205.102 3.70307C205.075 3.67915 204.757 3.52545 204.395 3.3649C204.037 3.20436 203.523 2.96524 203.258 2.83202C202.83 2.62024 202.72 2.58268 202.275 2.48703C202.003 2.42896 201.669 2.34356 201.534 2.29573C201.255 2.19668 200.617 1.8961 200.238 1.6809C199.811 1.44179 199.676 1.40764 198.156 1.19586C197.76 1.1412 197.315 1.06947 197.174 1.03873C196.832 0.966994 195.978 0.700559 195.678 0.570757C195.298 0.406798 194.54 0.290659 193.106 0.171105C191.434 0.0310559 190.497 -0.00311189 188.435 0.000303933C187.015 0.00371976 186.515 0.0173905 185.591 0.0822912Z" fill="white"/>
<path d="M74.888 8.79225C74.7708 8.87765 74.0882 9.51982 73.5608 10.039C73.2851 10.3123 72.9679 10.6095 72.8576 10.7017C72.7473 10.7939 72.5508 11.0057 72.4164 11.1731C72.2854 11.3371 72.0889 11.5454 71.982 11.6308C71.7166 11.846 71.4374 12.1124 71.2581 12.3242C71.1754 12.4199 71.0134 12.577 70.8962 12.6726C70.779 12.7683 70.5446 13.0074 70.3722 13.2021C70.2033 13.3968 69.962 13.6359 69.8379 13.7315C69.6449 13.8853 68.8796 14.6367 67.9937 15.5453C67.842 15.7025 67.6214 15.9108 67.5008 16.0133C67.3836 16.1124 67.2009 16.3071 67.1009 16.4437C66.9975 16.5803 66.832 16.758 66.7355 16.8399C66.2598 17.2396 66.1426 17.3455 65.9944 17.5368C65.8048 17.7827 64.6397 18.8997 64.4156 19.0534C64.2639 19.1559 64.064 19.3745 63.7537 19.7707C63.6779 19.8698 63.5228 20.0201 63.409 20.1089C63.1333 20.3207 61.9371 21.5094 61.7096 21.7963C61.6096 21.9227 61.389 22.1345 61.2201 22.2677C61.0512 22.4009 60.7858 22.6571 60.6341 22.8347C60.4824 23.0123 60.3411 23.1558 60.3204 23.1558C60.2997 23.1558 60.0377 23.3983 59.7413 23.6921C59.4414 23.9893 59.0932 24.3206 58.9657 24.4333C58.8381 24.5426 58.652 24.7442 58.552 24.8774C58.4521 25.0106 58.29 25.1916 58.1901 25.2736C57.773 25.6254 57.6523 25.7484 57.4765 25.9773C57.3766 26.1139 57.1663 26.3291 57.0077 26.4589C56.8492 26.5921 56.5837 26.8483 56.4148 27.0293C56.2459 27.2104 56.0218 27.429 55.915 27.5076C55.8081 27.5895 55.5909 27.8116 55.4358 27.9994C55.2807 28.1839 55.0566 28.4128 54.936 28.505C54.6878 28.6963 53.4399 29.926 53.2435 30.1753C53.078 30.3803 52.9332 30.5203 52.6299 30.7594C52.5023 30.8619 52.3265 31.0327 52.2369 31.1386C52.1438 31.2479 51.937 31.4631 51.775 31.6168C51.4165 31.9584 51.4958 31.8798 51.058 32.3273C50.8546 32.5322 50.5892 32.785 50.4685 32.8875C50.3479 32.99 50.1617 33.1847 50.0549 33.3213C49.9446 33.4579 49.7653 33.6424 49.655 33.7346C49.5412 33.8234 49.3241 34.0284 49.1724 34.1855C48.614 34.7594 47.5902 35.7465 47.4178 35.8729C47.1524 36.071 47.0697 36.1564 46.7904 36.5117C46.6525 36.6893 46.4871 36.8738 46.425 36.9216C46.363 36.966 46.1251 37.188 45.8976 37.4169C45.6701 37.6423 45.384 37.9122 45.2599 38.0146C45.1358 38.1171 44.9497 38.2947 44.8463 38.4075C44.5395 38.7388 44.3292 38.9403 44.0396 39.1726C43.8914 39.2956 43.6915 39.4869 43.5984 39.5996C43.3847 39.8524 42.254 40.9625 42.0817 41.0889C41.9334 41.1948 41.6301 41.5227 41.3922 41.8301C41.3061 41.9428 41.1234 42.1239 40.9924 42.2264C40.8579 42.3323 40.6511 42.5304 40.5339 42.667C40.2788 42.9505 40.0065 43.2272 39.6411 43.5688C39.4998 43.702 39.3033 43.8933 39.2033 43.9958C39.1068 44.0982 38.9138 44.2861 38.7724 44.4193C38.6311 44.5491 38.4277 44.7677 38.3208 44.9044C38.214 45.0376 38.0072 45.2528 37.8589 45.3826C37.5625 45.6422 37.3143 45.8813 37.104 46.1102C37.0282 46.1956 36.8351 46.3766 36.68 46.5166C36.5214 46.6567 36.2939 46.889 36.1698 47.0358C36.0492 47.1827 35.8079 47.415 35.6355 47.5482C35.4632 47.6849 35.2115 47.9205 35.0771 48.0743C34.9427 48.228 34.7083 48.4602 34.5566 48.5935C34.4049 48.7267 34.1671 48.959 34.0257 49.1161C33.8844 49.2698 33.6672 49.4747 33.5431 49.5738C33.419 49.6729 33.2225 49.8676 33.1088 50.0076C32.8813 50.2843 32.6813 50.4858 32.3022 50.8206C32.1643 50.9401 31.954 51.1587 31.8334 51.309C31.7127 51.4593 31.5231 51.6575 31.4128 51.7531C31.3025 51.8453 31.0336 52.1015 30.8165 52.3201C30.5958 52.5387 30.3235 52.8018 30.2132 52.9008C30.0994 52.9999 29.9443 53.1604 29.8685 53.2595C29.7616 53.3995 29.1515 54.028 28.4621 54.7078C27.6761 55.4866 27.2831 55.8589 27.128 55.9716C27.0246 56.0468 26.8385 56.2142 26.7144 56.344C26.5903 56.4704 26.3111 56.7539 26.087 56.9691C25.8664 57.1877 25.5906 57.478 25.4769 57.6112C25.3596 57.7479 25.1563 57.946 25.0253 58.0485C24.8943 58.1544 24.6599 58.39 24.5048 58.5779C24.3427 58.7726 24.0877 59.0254 23.9084 59.1723C23.5775 59.4387 23.5499 59.466 23.2914 59.794C23.1983 59.9101 23.0294 60.0809 22.9156 60.1697C22.8019 60.2619 22.5502 60.4976 22.3538 60.6957C22.1607 60.8939 21.8781 61.1705 21.7264 61.3106C21.5747 61.4506 21.3679 61.6829 21.261 61.823C21.1576 61.963 20.9266 62.2089 20.7474 62.3695C20.5716 62.53 20.4061 62.6769 20.382 62.7008C20.3579 62.7213 20.2476 62.8511 20.1373 62.9912C20.0235 63.1312 19.8477 63.3191 19.7374 63.4079C19.6305 63.5001 19.3996 63.7427 19.2272 63.9476C19.0514 64.156 18.8204 64.3951 18.717 64.4839C18.5102 64.6547 18.3068 64.8699 18.1483 65.0851C18.0931 65.1602 17.8759 65.3993 17.6691 65.6145C17.4588 65.8297 17.2175 66.103 17.1348 66.2191C16.9969 66.4172 16.7143 66.7076 16.5074 66.8613C16.4592 66.8989 16.3454 67.0389 16.2523 67.1687C16.0145 67.5103 15.7835 67.7938 15.5974 67.9714C15.5078 68.0568 15.3561 68.2242 15.2596 68.3472C15.163 68.4702 14.9045 68.7742 14.6839 69.0235C13.9841 69.8228 13.9221 69.898 13.7256 70.1917C13.6187 70.3523 13.3981 70.6255 13.2361 70.7963C13.05 70.9979 12.8742 71.2301 12.7604 71.4317C12.6604 71.6059 12.4777 71.8621 12.3571 72.0021C12.2364 72.1422 12.0503 72.3744 11.9469 72.5145C11.8435 72.6545 11.6711 72.8697 11.5677 72.9927C11.2092 73.406 11.0024 73.693 10.668 74.2361C10.4612 74.5777 10.2509 74.8714 10.1061 75.0251C9.9372 75.2028 9.80966 75.3906 9.64075 75.7015C9.4029 76.1489 9.31327 76.2924 8.77208 77.1088C8.59972 77.3718 8.41357 77.6656 8.36187 77.7612C8.31016 77.8568 8.17917 78.0515 8.07231 78.1882C7.9689 78.3282 7.78275 78.6152 7.6621 78.8304C7.54145 79.0421 7.37944 79.3086 7.3036 79.4179C7.18295 79.5955 7.10367 79.7321 6.79343 80.3197C6.74517 80.4119 6.62796 80.651 6.53144 80.8491C6.37977 81.1702 6.1695 81.5562 5.84202 82.113C5.77997 82.2154 5.65932 82.4785 5.56969 82.6937C5.48007 82.9089 5.36631 83.1753 5.31805 83.288C5.21809 83.5169 4.85269 84.1625 4.73894 84.3162C4.56313 84.5484 4.28736 85.2077 3.90818 86.2973C3.84268 86.4852 3.64275 86.9395 3.4635 87.305C3.2291 87.7901 3.105 88.0872 3.01882 88.3981C2.87749 88.89 2.72926 89.3306 2.61895 89.5765C2.53278 89.7644 2.46728 89.9659 2.29148 90.5569C2.12946 91.1 1.89506 91.7148 1.71236 92.0769C1.62963 92.2409 1.54345 92.4322 1.52277 92.4971C1.47796 92.6337 1.37454 93.2246 1.29181 93.7951C1.16082 94.7071 0.63341 97.4432 0.498972 97.9043C0.319721 98.5089 0.0956578 100.19 0.0336095 101.378C-0.0112032 102.222 -0.0112032 105.539 0.0336095 106.792C0.0922106 108.442 0.21286 109.791 0.364534 110.516C0.392111 110.645 0.467947 110.915 0.529996 111.113C0.595491 111.311 0.688564 111.656 0.736823 111.882C0.78853 112.107 0.857473 112.422 0.895391 112.582C0.929862 112.743 1.00225 113.149 1.05051 113.487C1.27458 115.007 1.4297 115.742 1.67444 116.408C1.93298 117.112 2.13636 117.733 2.34318 118.447C2.43626 118.768 2.58793 119.212 2.68445 119.438C2.77752 119.66 2.91885 120.056 3.00159 120.319C3.13947 120.77 3.26701 121.057 3.63586 121.73C3.72203 121.887 3.85303 122.218 3.93231 122.464C4.09777 122.983 4.43904 123.933 4.55969 124.199C4.6045 124.302 4.71136 124.49 4.79754 124.623C4.99058 124.917 5.28014 125.508 5.51109 126.068C5.66621 126.447 5.81444 126.727 6.21775 127.373C6.35909 127.605 6.81755 128.449 7.11745 129.029C7.21397 129.221 7.44838 129.576 7.64487 129.835C7.92753 130.208 8.06197 130.43 8.32395 130.946C8.54801 131.397 8.72382 131.69 8.89617 131.916C9.03406 132.093 9.33051 132.531 9.55802 132.889C9.78553 133.244 10.0268 133.6 10.0992 133.675C10.2957 133.887 10.4198 134.057 10.6025 134.375C11.0368 135.13 11.84 136.23 12.3226 136.732C12.5467 136.964 12.7811 137.299 12.9431 137.617C13.0017 137.736 13.1568 137.917 13.3705 138.129C13.5567 138.31 13.7532 138.525 13.8083 138.611C13.9841 138.884 14.2082 139.168 14.4392 139.413C14.5632 139.547 14.8321 139.854 15.0355 140.097C15.2354 140.343 15.5388 140.701 15.7077 140.899C15.8732 141.097 16.111 141.381 16.2351 141.531C16.3592 141.682 16.6143 141.965 16.8039 142.163C16.9969 142.361 17.221 142.607 17.3037 142.71C17.3864 142.812 17.5898 143.038 17.7553 143.212C17.9208 143.383 18.131 143.629 18.2207 143.758C18.3103 143.885 18.5929 144.199 18.8515 144.455C19.7581 145.354 20.1166 145.736 20.2751 145.972C20.4475 146.231 20.5612 146.344 20.8577 146.559C20.9646 146.638 21.1404 146.805 21.2541 146.932C21.3644 147.061 21.5885 147.29 21.7471 147.441C22.4089 148.062 23.2638 148.933 23.4465 149.169C23.5913 149.357 23.7154 149.47 24.1083 149.78C24.2186 149.866 24.3738 150.026 24.46 150.139C24.7461 150.525 24.9046 150.689 25.1218 150.839C25.2424 150.921 25.4286 151.085 25.5355 151.205C25.6423 151.324 25.8112 151.495 25.9043 151.581C26.0008 151.669 26.3042 151.963 26.5799 152.236C26.8557 152.51 27.1832 152.814 27.3038 152.913C27.4279 153.008 27.652 153.23 27.8002 153.408C27.9484 153.582 28.1622 153.801 28.2759 153.893C28.3862 153.985 28.5689 154.17 28.6827 154.303C28.9688 154.645 29.086 154.757 29.2859 154.908C29.5272 155.085 29.7754 155.328 29.9443 155.557C30.0236 155.663 30.2098 155.854 30.358 155.984C30.5062 156.113 30.7096 156.305 30.813 156.407C30.913 156.51 31.1715 156.773 31.3852 156.988C31.5955 157.203 31.8299 157.456 31.9023 157.551C32.116 157.825 32.3022 158.009 32.5055 158.149C32.6986 158.279 32.9226 158.505 33.257 158.901C33.357 159.02 33.5052 159.16 33.5845 159.212C33.7706 159.338 33.9361 159.492 34.1085 159.703C34.3049 159.946 35.5597 161.183 35.7527 161.326C35.8424 161.391 36.0044 161.545 36.1147 161.668C36.225 161.791 36.4422 162.013 36.6042 162.163C37.0282 162.566 37.3694 162.897 37.5004 163.044C37.5659 163.119 37.7452 163.28 37.9003 163.41C38.0554 163.536 38.2588 163.741 38.3519 163.861C38.4449 163.977 38.6276 164.175 38.7621 164.298C38.8931 164.421 39.124 164.65 39.2791 164.807C39.4308 164.967 39.7445 165.282 39.9755 165.507C40.203 165.736 40.4581 166.002 40.5339 166.105C40.6132 166.204 40.8269 166.416 41.0131 166.573C41.1957 166.73 41.4164 166.945 41.5025 167.051C41.7438 167.348 41.8817 167.485 42.1058 167.642C42.3436 167.806 42.6642 168.106 42.778 168.27C42.8193 168.328 42.9434 168.448 43.0503 168.533C43.233 168.68 43.4674 168.906 43.9879 169.442C44.112 169.572 44.3464 169.801 44.505 169.951C44.6636 170.101 44.8876 170.323 45.0048 170.446C45.1186 170.569 45.3254 170.767 45.4667 170.89C45.6081 171.013 45.7873 171.215 45.8701 171.345C45.9873 171.522 46.0976 171.632 46.3561 171.823C46.7077 172.089 46.8663 172.243 47.0455 172.503C47.1076 172.591 47.2765 172.752 47.4247 172.861C47.697 173.059 48.8863 174.228 49.1379 174.538C49.2138 174.631 49.3896 174.791 49.5275 174.89C49.7929 175.082 50.179 175.464 50.3237 175.676C50.3686 175.744 50.5168 175.874 50.6512 175.963C51.0063 176.202 51.2097 176.376 51.3958 176.602C51.4889 176.707 51.675 176.892 51.8163 177.011C51.9542 177.128 52.2093 177.36 52.3782 177.524C52.5506 177.688 52.8608 177.941 53.0677 178.087C53.2779 178.234 53.5399 178.429 53.6537 178.521C53.9191 178.736 55.0842 179.816 55.0842 179.847C55.0842 179.874 55.6082 180.291 55.9115 180.506C56.0149 180.578 56.239 180.769 56.4045 180.923C56.5734 181.08 56.8526 181.302 57.025 181.418C57.2008 181.531 57.4731 181.736 57.6351 181.869C57.7971 182.002 58.0625 182.197 58.2314 182.299C58.3969 182.402 58.6382 182.576 58.7658 182.685C59.0588 182.941 59.2621 183.085 59.8413 183.457C60.0963 183.621 60.4273 183.864 60.572 183.997C60.8513 184.256 61.0167 184.373 61.4959 184.639C61.6579 184.728 61.9819 184.943 62.2198 185.114C62.6645 185.438 63.116 185.746 63.478 185.971C63.5917 186.043 63.771 186.166 63.8744 186.248C63.9778 186.326 64.2708 186.501 64.5225 186.634C64.7775 186.767 65.1326 186.979 65.3153 187.105C65.6979 187.372 65.8013 187.433 66.5287 187.805C66.8217 187.956 67.1698 188.15 67.3043 188.236C67.4353 188.325 67.7179 188.475 67.9248 188.571C68.3729 188.776 68.7521 188.994 69.1313 189.264C69.4863 189.52 69.4863 189.52 70.0034 189.684C70.648 189.886 71.2512 190.179 71.5098 190.419C71.6615 190.555 71.8062 190.617 72.5715 190.846C73.3988 191.091 73.8125 191.259 74.0779 191.464C74.1641 191.529 74.3985 191.662 74.595 191.761C74.9362 191.932 75.0121 191.956 75.8876 192.14C77.0252 192.379 77.0562 192.386 77.594 192.646C78.2248 192.946 79.0314 193.206 80.0069 193.421C81.4651 193.746 82.4165 193.947 83.0232 194.053C83.623 194.159 84.147 194.278 84.4193 194.374C84.502 194.401 84.8191 194.466 85.1259 194.514C85.4293 194.562 85.7947 194.63 85.936 194.664C86.7047 194.856 88.2904 194.941 92.0202 194.992C93.6748 195.016 94.478 194.989 95.6914 194.866C96.6152 194.774 96.7531 194.75 97.5184 194.562C98.4146 194.34 99.4281 194.138 100 194.067C100.255 194.036 100.669 193.964 100.914 193.913C101.162 193.858 101.624 193.77 101.948 193.708C103.12 193.496 104.413 193.131 105.378 192.745C106.136 192.441 106.278 192.39 106.66 192.29C107.818 191.99 108.856 191.635 109.149 191.433C109.463 191.225 109.659 191.132 110.118 190.992C111.083 190.702 111.29 190.617 111.686 190.34C111.969 190.145 112.269 190.005 112.875 189.783C113.496 189.558 113.61 189.503 113.947 189.281C114.099 189.182 114.53 188.943 114.906 188.752C115.306 188.55 115.716 188.314 115.888 188.188C116.191 187.963 116.788 187.652 117.305 187.454C117.498 187.378 117.653 187.29 117.76 187.194C117.96 187.013 118.298 186.798 118.701 186.593C118.873 186.504 119.084 186.384 119.173 186.323C119.763 185.92 120.452 185.469 120.618 185.38C120.724 185.326 120.917 185.192 121.048 185.086C121.179 184.984 121.376 184.847 121.486 184.786C121.883 184.564 122.203 184.342 122.479 184.089C122.779 183.816 123.32 183.443 123.706 183.242C123.837 183.174 124.075 183.01 124.234 182.876C124.396 182.743 124.658 182.542 124.82 182.429C124.982 182.313 125.244 182.094 125.406 181.94C125.568 181.787 125.799 181.602 125.923 181.531C126.198 181.37 126.591 181.059 126.684 180.929C126.722 180.875 126.988 180.66 127.277 180.448C127.564 180.236 128.001 179.881 128.246 179.655C128.494 179.433 128.818 179.157 128.97 179.044C129.125 178.928 129.404 178.689 129.594 178.508C129.783 178.33 130.049 178.094 130.18 177.988C130.314 177.882 130.507 177.708 130.611 177.602C130.714 177.493 130.942 177.292 131.111 177.148C131.283 177.008 131.569 176.745 131.748 176.561C131.934 176.376 132.203 176.151 132.369 176.041C132.672 175.843 132.738 175.789 132.976 175.532C133.051 175.45 133.244 175.266 133.406 175.126C133.565 174.986 133.813 174.75 133.954 174.6C134.096 174.453 134.33 174.248 134.475 174.149C134.62 174.047 134.837 173.855 134.958 173.722C135.185 173.473 135.495 173.158 135.799 172.878C135.895 172.789 136.064 172.595 136.178 172.444C136.292 172.298 136.471 172.106 136.574 172.024C137.091 171.621 137.174 171.546 137.253 171.423C137.326 171.31 138.363 170.269 138.963 169.708C139.067 169.609 139.235 169.425 139.342 169.295C139.446 169.162 139.615 168.988 139.715 168.906C139.818 168.824 140.056 168.595 140.249 168.397C140.442 168.199 140.669 167.977 140.749 167.901C140.831 167.83 141.042 167.625 141.211 167.451C141.583 167.071 142.907 165.756 143.303 165.37C143.462 165.217 143.7 164.981 143.834 164.841C143.968 164.701 144.155 164.52 144.248 164.434C144.341 164.349 144.51 164.158 144.623 164.011C144.744 163.854 144.927 163.669 145.054 163.574C145.437 163.293 145.599 163.14 145.802 162.873C145.906 162.733 146.075 162.556 146.171 162.477C146.268 162.399 146.55 162.132 146.795 161.89C147.043 161.644 147.35 161.353 147.481 161.244C147.609 161.135 147.798 160.94 147.898 160.814C148.002 160.687 148.222 160.472 148.394 160.339C148.563 160.206 148.784 160.001 148.881 159.885C148.981 159.765 149.263 159.468 149.515 159.225C149.763 158.979 150.035 158.692 150.122 158.583C150.204 158.474 150.373 158.303 150.497 158.204C150.621 158.101 150.87 157.862 151.049 157.671C151.225 157.483 151.459 157.268 151.566 157.196C151.773 157.053 151.924 156.902 152.135 156.629C152.207 156.534 152.455 156.274 152.686 156.045C152.914 155.82 153.179 155.55 153.269 155.441C153.358 155.335 153.527 155.188 153.641 155.113C153.972 154.894 154.182 154.699 154.348 154.453C154.434 154.327 154.627 154.112 154.782 153.975C154.934 153.838 155.154 153.61 155.275 153.466C155.396 153.326 155.63 153.094 155.795 152.954C155.964 152.81 156.219 152.564 156.361 152.4C156.502 152.236 156.706 152.042 156.809 151.963C157.171 151.697 157.257 151.615 157.481 151.335C157.605 151.181 157.771 151.003 157.85 150.942C158.105 150.74 158.364 150.488 158.498 150.31C158.684 150.067 158.791 149.958 159.084 149.712C159.225 149.593 159.505 149.333 159.705 149.131C159.904 148.933 160.149 148.708 160.246 148.626C160.342 148.547 160.511 148.363 160.621 148.219C160.894 147.861 161.887 146.877 162.248 146.604C162.414 146.481 162.61 146.303 162.686 146.208C162.762 146.112 162.879 145.965 162.945 145.88C163.01 145.798 163.193 145.617 163.352 145.48C163.507 145.343 163.696 145.152 163.772 145.05C163.845 144.951 164.003 144.78 164.124 144.67C164.244 144.561 164.544 144.267 164.789 144.021C165.037 143.775 165.323 143.519 165.427 143.451C165.63 143.321 165.871 143.085 166.027 142.863C166.082 142.788 166.302 142.549 166.526 142.334C166.747 142.115 167.019 141.832 167.133 141.705C167.243 141.576 167.471 141.364 167.636 141.234C167.802 141.108 168.019 140.899 168.119 140.776C168.215 140.653 168.422 140.448 168.577 140.322C168.853 140.093 169.012 139.933 169.26 139.629C169.329 139.543 169.539 139.359 169.725 139.222C169.911 139.086 170.132 138.898 170.218 138.802C170.304 138.71 170.456 138.556 170.56 138.46C170.663 138.365 170.915 138.115 171.118 137.91C171.325 137.702 171.556 137.466 171.638 137.384C171.721 137.302 172.166 136.862 172.631 136.411C173.097 135.957 173.534 135.513 173.603 135.42C173.676 135.332 173.848 135.157 173.986 135.041C174.127 134.922 174.317 134.737 174.41 134.628C174.555 134.461 175.241 133.753 175.861 133.135C176.061 132.94 177.047 131.984 177.368 131.68C177.478 131.574 177.65 131.39 177.75 131.267C177.854 131.144 178.019 130.983 178.119 130.908C178.288 130.782 178.391 130.683 179.029 130.03C179.16 129.894 179.391 129.682 179.536 129.559C179.681 129.436 179.843 129.275 179.894 129.2C180.001 129.043 181.039 128.015 181.421 127.69C181.563 127.567 181.759 127.383 181.852 127.277C181.949 127.168 182.132 126.983 182.259 126.86C182.638 126.502 183.079 126.068 183.3 125.832C183.417 125.713 183.624 125.504 183.762 125.374C183.903 125.241 184.072 125.057 184.145 124.965C184.214 124.869 184.365 124.708 184.476 124.606C184.586 124.503 184.882 124.22 185.127 123.974C185.375 123.731 185.679 123.441 185.806 123.335C185.93 123.226 186.134 123.011 186.254 122.857C186.375 122.703 186.606 122.461 186.771 122.317C186.933 122.177 187.164 121.948 187.282 121.812C187.399 121.672 187.609 121.48 187.743 121.378C187.878 121.279 188.054 121.115 188.133 121.016L188.274 120.831L188.223 120.302C188.171 119.796 188.164 119.766 188.05 119.588C187.878 119.322 187.251 118.669 186.885 118.375C186.506 118.068 186.378 117.945 186.213 117.72C186.141 117.624 185.968 117.45 185.83 117.327C185.692 117.207 185.486 117.009 185.372 116.889C185.255 116.767 184.975 116.486 184.751 116.258C184.524 116.032 184.252 115.745 184.141 115.622C184.031 115.496 183.796 115.274 183.614 115.13C183.435 114.987 183.21 114.782 183.121 114.676C182.904 114.423 181.556 113.081 181.342 112.91C181.253 112.838 181.094 112.668 180.991 112.527C180.78 112.251 180.632 112.104 179.884 111.404C179.601 111.141 179.239 110.789 179.077 110.625C178.674 110.208 178.267 109.805 177.988 109.542C177.857 109.419 177.654 109.218 177.537 109.095C177.419 108.968 177.223 108.784 177.099 108.685C176.978 108.582 176.775 108.384 176.654 108.244C176.302 107.844 175.255 106.803 175.044 106.652C174.941 106.574 174.7 106.345 174.51 106.14C174.32 105.935 174.11 105.723 174.045 105.665C173.979 105.61 173.758 105.402 173.559 105.201C173.355 105.002 173.045 104.722 172.866 104.579C172.69 104.439 172.466 104.224 172.373 104.107C172.221 103.916 171.563 103.254 170.556 102.28C170.38 102.113 170.16 101.88 170.063 101.771C169.97 101.662 169.784 101.494 169.656 101.402C169.525 101.31 169.343 101.139 169.25 101.023C169.157 100.91 169.032 100.757 168.974 100.685C168.915 100.616 168.757 100.47 168.622 100.364C168.319 100.125 168.298 100.104 168.133 99.8923C168.06 99.7967 167.798 99.52 167.55 99.2775C167.302 99.0316 167.012 98.7378 166.909 98.6251C166.806 98.5158 166.613 98.3381 166.478 98.2322C166.347 98.1264 166.089 97.8804 165.909 97.6857C165.73 97.4876 165.489 97.2519 165.378 97.1597C165.268 97.064 165.068 96.8625 164.937 96.7088C164.81 96.5551 164.624 96.3638 164.524 96.2818C164.165 95.9846 164.034 95.8548 163.807 95.5884C163.679 95.4381 163.5 95.2468 163.407 95.1614C163.314 95.076 163.021 94.7925 162.752 94.5295C162.486 94.2665 162.135 93.9283 161.976 93.7746C161.818 93.6243 161.6 93.4091 161.497 93.2964C161.39 93.1871 161.211 93.0163 161.097 92.9241C160.983 92.8284 160.835 92.6849 160.77 92.603C160.435 92.1794 160.304 92.0394 160.073 91.8686C159.932 91.7695 159.742 91.5987 159.649 91.4894C159.401 91.2025 158.095 89.9045 157.895 89.7473C157.695 89.5868 157.695 89.5902 157.36 89.2179C157.219 89.0573 157.057 88.89 156.999 88.8456C156.888 88.7533 156.464 88.3332 156.24 88.0941C156.164 88.0121 155.978 87.8413 155.827 87.7149C155.544 87.4826 155.489 87.4212 155.158 87.0249C155.058 86.8985 154.854 86.7072 154.71 86.5911C154.565 86.4784 154.168 86.089 153.827 85.7303C153.045 84.9071 152.741 84.6031 152.469 84.3708C152.348 84.2683 152.207 84.1249 152.155 84.0566C151.948 83.7731 151.783 83.5988 151.545 83.4212C151.407 83.3187 151.197 83.1172 151.076 82.9703C150.956 82.8269 150.714 82.5775 150.539 82.417C150.366 82.2598 150.132 82.0207 150.022 81.8875C149.908 81.7509 149.663 81.5186 149.473 81.3649C149.284 81.2146 149.07 81.0165 148.998 80.9277C148.798 80.6783 147.66 79.5648 147.329 79.2949C147.167 79.1617 146.967 78.9602 146.881 78.8509C146.795 78.7381 146.588 78.5161 146.423 78.3556C145.637 77.6041 144.713 76.6852 144.61 76.552C144.544 76.47 144.341 76.2822 144.155 76.1319C143.951 75.9713 143.731 75.7527 143.61 75.5956C143.341 75.2506 143.213 75.1174 143.003 74.9534C142.803 74.7997 142.676 74.6699 142.534 74.4786C142.417 74.3215 141.118 73.0644 140.928 72.9244C140.745 72.7946 140.57 72.617 140.352 72.3505C140.135 72.0807 139.963 71.8996 139.742 71.7084C139.653 71.6332 139.504 71.4829 139.408 71.3736C139.311 71.2677 139.073 71.0491 138.874 70.892C138.677 70.7349 138.439 70.5197 138.35 70.4103C138.077 70.0824 137.877 69.8877 137.677 69.7374C137.512 69.6145 136.692 68.8117 135.902 67.9988C135.75 67.8416 135.526 67.6333 135.406 67.5308C135.285 67.4283 135.102 67.2336 135.002 67.1004C134.875 66.9296 134.73 66.7862 134.516 66.6324C134.347 66.5095 134.134 66.3216 134.041 66.2123C133.755 65.881 132.558 64.7093 132.327 64.5351C132.207 64.4429 132.01 64.2619 131.886 64.1321C131.762 64.0023 131.462 63.6914 131.214 63.4455C130.969 63.1995 130.673 62.8989 130.556 62.7794C130.442 62.6564 130.225 62.4481 130.076 62.3183C129.928 62.185 129.728 61.9835 129.635 61.8639C129.539 61.7444 129.325 61.5292 129.16 61.3823C128.994 61.2354 128.767 61.01 128.656 60.8802C128.546 60.7538 128.277 60.4703 128.06 60.2517C127.843 60.0365 127.574 59.7564 127.464 59.6266C127.353 59.5002 127.174 59.3362 127.064 59.2645C126.953 59.1894 126.757 59.0117 126.626 58.8648C126.302 58.5096 126.043 58.2534 125.805 58.0519C125.695 57.9597 125.523 57.7752 125.423 57.6386C125.323 57.5054 125.14 57.3141 125.02 57.2116C124.902 57.1125 124.609 56.8359 124.371 56.6002C124.134 56.3645 123.823 56.0707 123.685 55.9512C123.548 55.8282 123.351 55.6266 123.248 55.4968C123.144 55.3705 122.913 55.1416 122.734 54.9913C122.555 54.8376 122.334 54.6258 122.245 54.5199C122.155 54.4106 121.941 54.2022 121.772 54.0519C121.486 53.7992 121.324 53.625 121.011 53.2185C120.935 53.1194 120.766 52.9623 120.631 52.8667C120.5 52.771 120.259 52.5797 120.097 52.4465C119.935 52.3099 119.773 52.1869 119.735 52.1664C119.697 52.1459 119.439 52.0947 119.163 52.0537L118.66 51.9751L118.522 52.0844C118.446 52.1459 118.332 52.2723 118.267 52.368C118.205 52.467 118.039 52.6515 117.894 52.7847C117.753 52.9179 117.543 53.1263 117.429 53.2492C117.164 53.5259 116.877 53.8094 116.526 54.1373C116.374 54.2774 116.171 54.4892 116.071 54.6053C115.971 54.7215 115.767 54.9162 115.619 55.0323C115.471 55.1518 115.219 55.4012 115.057 55.5891C114.895 55.7769 114.661 56.0126 114.54 56.1083C114.416 56.2073 114.192 56.4225 114.047 56.5831C113.899 56.7436 113.647 56.9759 113.489 57.0989C113.31 57.2355 113.103 57.4439 112.948 57.6352C112.789 57.8333 112.596 58.0246 112.434 58.1441C112.289 58.2534 112.065 58.4584 111.938 58.6052C111.81 58.7487 111.548 59.022 111.355 59.2098C111.162 59.3977 110.928 59.6437 110.835 59.7598C110.648 59.9887 110.473 60.1526 110.235 60.3132C110.145 60.3712 110 60.5045 109.907 60.6103C109.507 61.0646 109.414 61.1603 109.197 61.3311C109.07 61.4336 108.894 61.6112 108.804 61.7273C108.573 62.0313 108.356 62.2533 108.136 62.4036C107.918 62.5539 107.753 62.7247 107.587 62.9673C107.436 63.1893 107.239 63.3942 106.981 63.5992C106.867 63.688 106.695 63.8588 106.602 63.9749C106.505 64.0945 106.271 64.3165 106.078 64.4771C105.885 64.6342 105.647 64.863 105.547 64.986C105.367 65.2115 105.123 65.4301 104.816 65.6384C104.73 65.6999 104.568 65.8673 104.457 66.0142C104.23 66.3216 103.075 67.4796 102.792 67.6879C102.603 67.8246 102.431 67.9988 102.203 68.2891C102.138 68.3745 101.982 68.5248 101.858 68.6273C101.738 68.7263 101.531 68.921 101.396 69.0611C101.265 69.2011 101.041 69.4266 100.9 69.5564C100.759 69.6896 100.424 70.0141 100.155 70.2771C99.8865 70.5402 99.5418 70.8715 99.3936 71.0115C99.2454 71.1516 99.042 71.3702 98.942 71.4966C98.8421 71.623 98.6731 71.7903 98.5628 71.8689C98.4525 71.9475 98.2698 72.1148 98.1561 72.2378C98.0423 72.3608 97.8424 72.5623 97.7114 72.6853C97.3288 73.0405 96.9944 73.3787 96.8324 73.57C96.7496 73.669 96.5359 73.8637 96.3601 74.0004C96.1602 74.1609 95.9637 74.3556 95.8327 74.5264C95.7155 74.6767 95.5466 74.8578 95.457 74.9295C95.295 75.0593 95.0468 75.3018 94.6055 75.7629C94.4711 75.903 94.2677 76.0977 94.1471 76.1968C94.0299 76.2958 93.8472 76.4939 93.7403 76.634C93.6334 76.774 93.4576 76.9619 93.3542 77.0507C93.1474 77.2215 92.8406 77.5221 92.4993 77.8808C92.3856 78.0003 92.1546 78.2292 91.9823 78.3897C91.8134 78.5503 91.5893 78.7689 91.4859 78.8816C91.3825 78.9909 91.2136 79.1378 91.1067 79.2095C90.8861 79.3598 90.6344 79.6126 90.4035 79.92C90.3139 80.0361 90.1346 80.2172 90.0036 80.3197C89.8726 80.4221 89.6555 80.6373 89.521 80.7979C89.39 80.955 89.1832 81.1668 89.066 81.2658C88.8144 81.4776 88.5868 81.7031 88.2904 82.0344C88.1697 82.1676 87.9939 82.3316 87.894 82.3965C87.694 82.5263 87.4872 82.7347 87.3355 82.9498C87.2804 83.025 87.0356 83.288 86.784 83.5339C86.5358 83.7765 86.2221 84.0941 86.0877 84.2342C85.9532 84.3708 85.7154 84.6099 85.5534 84.7636C85.3948 84.9139 85.157 85.153 85.0225 85.2897C84.8915 85.4263 84.4262 85.8909 83.9884 86.3178C83.554 86.7482 83.0473 87.2504 82.8646 87.4314C82.6819 87.6159 82.4337 87.8584 82.3131 87.9711C82.1924 88.0838 82.0097 88.2751 81.9063 88.3912C81.8029 88.5108 81.6237 88.685 81.5065 88.7772C81.3858 88.8695 81.1721 89.0881 81.0307 89.2657C80.8894 89.4399 80.6274 89.7029 80.4482 89.8532C80.2724 90.0001 80.0104 90.2426 79.8656 90.3963C79.7174 90.5466 79.5106 90.7379 79.4003 90.8199C79.2003 90.9702 79.0314 91.1512 78.7143 91.5475C78.6281 91.6568 78.4247 91.8515 78.2662 91.9847C78.1041 92.1179 77.8663 92.3536 77.7353 92.5073C77.6043 92.661 77.3871 92.8762 77.2527 92.989C77.1183 93.0983 76.8873 93.3203 76.7425 93.4808C76.5943 93.6414 76.3633 93.8532 76.2289 93.9522C75.9876 94.1298 75.829 94.2972 75.5257 94.6969C75.4395 94.8096 75.2292 95.0111 75.0534 95.1512C74.8811 95.2878 74.6742 95.4859 74.5984 95.585C74.464 95.7592 74.2399 95.9778 73.9055 96.2681C73.8194 96.3399 73.6746 96.4936 73.5815 96.6097C73.3333 96.9206 73.2575 96.9957 72.9679 97.2143C72.8231 97.3236 72.5956 97.5422 72.4612 97.696C72.3268 97.8531 72.0992 98.0785 71.9545 98.2015C71.8062 98.3211 71.5753 98.5636 71.4339 98.7412C71.2926 98.9154 71.0961 99.1204 70.9996 99.1921C70.6239 99.479 70.4653 99.6259 70.2654 99.8718C70.1551 100.008 69.9344 100.231 69.7793 100.36C69.6242 100.487 69.3864 100.722 69.2519 100.883C69.1175 101.04 68.9279 101.235 68.8314 101.317C68.6004 101.505 68.2419 101.86 68.0523 102.085C67.973 102.184 67.811 102.335 67.6904 102.423C67.4491 102.601 67.387 102.666 67.0251 103.107C66.8872 103.277 66.7217 103.458 66.6597 103.506C66.4701 103.65 66.2805 103.841 66.0564 104.111C65.9392 104.251 65.7634 104.429 65.6635 104.504C65.1154 104.92 65.074 104.965 64.9396 105.289C64.8741 105.46 64.7775 105.699 64.7327 105.826L64.65 106.058L64.9085 106.574C65.1809 107.117 65.1946 107.134 65.729 107.588C65.8462 107.687 66.0392 107.889 66.1564 108.036C66.277 108.183 66.4666 108.377 66.5838 108.469C66.8286 108.668 67.0354 108.89 67.163 109.091C67.3146 109.33 67.4801 109.491 67.7214 109.631C67.8489 109.706 68.0558 109.87 68.1799 109.996C68.304 110.126 68.5521 110.372 68.728 110.543C68.9072 110.714 69.1657 110.997 69.3105 111.171C69.4518 111.349 69.6483 111.551 69.7449 111.622C69.9758 111.79 70.1861 112.001 70.3826 112.258C70.5618 112.49 70.5928 112.517 70.9169 112.777C71.0479 112.883 71.2409 113.074 71.3478 113.207C71.5753 113.494 71.7787 113.696 72.0648 113.925C72.1751 114.017 72.3302 114.177 72.406 114.28C72.5853 114.522 72.8404 114.785 73.0713 114.956C73.2402 115.079 73.4091 115.264 73.6746 115.602C73.7263 115.667 73.9124 115.837 74.0882 115.974C74.264 116.114 74.4915 116.333 74.595 116.459C74.6984 116.589 74.8742 116.76 74.9914 116.842C75.2947 117.064 75.5153 117.282 75.698 117.552C75.8738 117.812 76.0428 117.972 76.3047 118.133C76.3978 118.188 76.5667 118.331 76.6805 118.454C76.7942 118.573 77.0597 118.843 77.2665 119.052C77.4768 119.26 77.756 119.55 77.8835 119.697C78.0111 119.844 78.2317 120.046 78.3696 120.145C78.5075 120.247 78.6867 120.411 78.7694 120.51C78.9418 120.715 79.2072 120.978 79.5347 121.265C79.6553 121.374 79.8174 121.552 79.8897 121.658C80.1035 121.976 80.2827 122.181 80.3999 122.235C80.4585 122.266 80.724 122.509 80.9894 122.775C81.2548 123.038 81.565 123.335 81.6788 123.431C81.7926 123.526 81.9822 123.728 82.0959 123.875C82.2131 124.029 82.3993 124.216 82.5234 124.309C82.8336 124.538 82.9508 124.654 83.168 124.937C83.2679 125.074 83.4403 125.251 83.5506 125.327C83.8126 125.514 84.0194 125.713 84.1711 125.921C84.3503 126.17 84.5572 126.389 84.695 126.478C84.8777 126.601 85.0673 126.785 85.2362 127.014C85.4396 127.284 85.6154 127.468 85.7843 127.591C85.8567 127.646 86.0808 127.847 86.2807 128.039C86.4807 128.23 86.7392 128.459 86.8598 128.548C87.0839 128.718 87.308 128.971 87.4183 129.18C87.4941 129.323 87.6458 129.47 87.8836 129.627C88.1835 129.829 88.3524 129.979 88.6006 130.273C88.8385 130.553 88.8488 130.56 89.328 130.795C89.721 130.987 89.8382 131.028 89.9347 131.017C90.0002 131.007 90.2587 130.915 90.5035 130.812C90.9343 130.628 90.9619 130.611 91.1756 130.375C91.4755 130.044 91.8168 129.709 92.034 129.528C92.1305 129.446 92.327 129.238 92.4683 129.063C92.6096 128.889 92.7682 128.722 92.8199 128.688C92.8682 128.654 93.106 128.435 93.3439 128.199C93.5817 127.964 93.8816 127.69 94.0092 127.591C94.1333 127.489 94.3125 127.321 94.4056 127.216C94.7572 126.806 94.8882 126.676 95.126 126.502C95.2605 126.403 95.4466 126.232 95.5397 126.122C95.7155 125.918 96.105 125.521 96.3187 125.337C96.3842 125.275 96.5532 125.094 96.691 124.93C96.8289 124.77 97.053 124.551 97.1909 124.452C97.3288 124.35 97.5321 124.165 97.6425 124.039C97.9113 123.735 98.2181 123.431 98.4629 123.226C98.5697 123.137 98.7628 122.942 98.8869 122.795C99.011 122.645 99.2074 122.454 99.3246 122.362C99.5522 122.184 99.7693 121.965 99.9244 121.75C100.042 121.59 100.283 121.378 100.431 121.303C100.59 121.224 100.886 120.924 101.052 120.678C101.224 120.418 101.317 120.319 101.62 120.063C101.91 119.824 101.893 119.837 102.1 119.595C102.193 119.479 102.389 119.291 102.534 119.175C102.675 119.059 102.913 118.816 103.061 118.635C103.216 118.44 103.472 118.188 103.682 118.017C103.875 117.856 104.082 117.655 104.144 117.569C104.202 117.484 104.357 117.316 104.492 117.193C104.871 116.845 105.14 116.575 105.34 116.343C105.443 116.223 105.64 116.046 105.771 115.947C106.04 115.749 106.115 115.677 106.377 115.349C106.474 115.226 106.681 115.021 106.836 114.888C106.988 114.758 107.229 114.515 107.367 114.352C107.505 114.191 107.739 113.955 107.891 113.836C108.039 113.713 108.215 113.545 108.277 113.467C108.532 113.153 108.67 113.019 108.89 112.876C109.142 112.712 109.428 112.422 109.628 112.124C109.707 112.005 109.876 111.841 110.062 111.694C110.228 111.564 110.469 111.342 110.6 111.199C110.731 111.052 110.938 110.854 111.062 110.755C111.186 110.656 111.369 110.475 111.462 110.358C111.655 110.116 112.062 109.706 112.338 109.477C112.438 109.395 112.627 109.2 112.758 109.043C112.889 108.886 113.106 108.671 113.237 108.569C113.368 108.463 113.592 108.234 113.734 108.06C113.899 107.855 114.092 107.66 114.268 107.53C114.416 107.417 114.599 107.25 114.675 107.161C114.747 107.072 114.954 106.857 115.133 106.686C115.312 106.512 115.547 106.283 115.65 106.181C116.274 105.552 116.929 104.886 117.07 104.736C117.157 104.644 117.301 104.521 117.391 104.466C117.612 104.333 117.901 104.07 118.084 103.831C118.167 103.725 118.329 103.578 118.439 103.506L118.646 103.373L119.173 103.421C119.77 103.476 119.88 103.517 120.28 103.851C120.397 103.95 120.624 104.121 120.786 104.23C120.986 104.37 121.328 104.681 121.879 105.235C122.931 106.294 122.92 106.283 123.32 106.666C123.51 106.847 123.72 107.055 123.782 107.127C123.848 107.199 124.027 107.366 124.185 107.493C124.34 107.622 124.589 107.872 124.737 108.046C124.885 108.22 125.092 108.442 125.199 108.541C125.737 109.043 126.719 110.031 126.871 110.225C126.967 110.345 127.129 110.512 127.233 110.594C127.336 110.676 127.501 110.806 127.595 110.884C127.836 111.083 128.656 111.93 128.901 112.234C129.011 112.374 129.197 112.558 129.315 112.644C129.428 112.732 129.642 112.92 129.783 113.067C130.428 113.723 130.962 114.283 131.059 114.41C131.18 114.56 131.217 114.601 131.541 114.871C131.845 115.127 131.848 115.13 132.065 115.4C132.334 115.735 132.427 115.831 132.662 116.005C132.776 116.09 132.979 116.275 133.11 116.411C133.244 116.548 133.493 116.787 133.668 116.944C133.841 117.101 134.065 117.33 134.165 117.46C134.372 117.726 134.52 117.866 134.775 118.037C135.054 118.222 135.306 118.464 135.585 118.806C136.219 119.595 136.243 119.643 136.305 120.333L136.354 120.855L136.233 121.06C136.112 121.262 136.037 121.337 135.644 121.644C135.54 121.726 135.385 121.894 135.299 122.017C135.133 122.256 133.992 123.397 133.696 123.619C133.524 123.748 133.458 123.817 133.12 124.23C133.038 124.333 132.876 124.486 132.765 124.572C132.651 124.657 132.441 124.845 132.3 124.995C132.159 125.142 131.841 125.467 131.593 125.713C131.348 125.962 131.052 126.269 130.938 126.396C130.824 126.526 130.625 126.713 130.487 126.812C130.352 126.912 130.139 127.113 130.014 127.263C129.89 127.414 129.701 127.608 129.59 127.701C129.349 127.902 128.977 128.268 128.705 128.568C128.594 128.691 128.429 128.848 128.332 128.923C128.239 128.995 128.074 129.163 127.967 129.299C127.739 129.586 127.626 129.695 127.37 129.856C127.098 130.03 126.94 130.187 126.736 130.502C126.633 130.655 126.467 130.847 126.354 130.946C126.095 131.157 125.847 131.403 125.633 131.656C125.54 131.765 125.354 131.936 125.219 132.035C124.968 132.22 124.823 132.363 124.606 132.636C124.537 132.722 124.396 132.869 124.296 132.961C124.006 133.227 123.679 133.559 123.496 133.774C123.403 133.883 123.213 134.054 123.075 134.156C122.82 134.341 122.751 134.42 122.448 134.819C122.355 134.946 122.169 135.127 122.021 135.239C121.876 135.345 121.638 135.567 121.486 135.731C121.338 135.895 121.155 136.083 121.079 136.148C120.893 136.308 120.545 136.664 120.259 136.981C120.132 137.121 119.945 137.292 119.845 137.357C119.642 137.494 119.508 137.627 119.315 137.883C119.177 138.064 118.918 138.29 118.735 138.382C118.604 138.447 118.26 138.812 118.087 139.065C118.015 139.171 117.846 139.349 117.708 139.454C117.457 139.653 116.805 140.274 116.357 140.735C116.226 140.872 115.985 141.108 115.826 141.258C115.667 141.408 115.405 141.668 115.24 141.835C115.078 141.999 114.744 142.337 114.495 142.587C114.251 142.833 113.954 143.14 113.844 143.27C113.734 143.396 113.558 143.56 113.461 143.632C113.361 143.707 113.196 143.854 113.096 143.96C112.844 144.223 112.441 144.623 112.131 144.913C111.989 145.046 111.776 145.261 111.652 145.391C111.527 145.524 111.324 145.719 111.193 145.828C111.066 145.938 110.876 146.136 110.769 146.266C110.662 146.399 110.5 146.563 110.404 146.631C110.124 146.836 109.859 147.089 109.745 147.253C109.597 147.475 109.352 147.717 109.132 147.868C109.025 147.943 108.839 148.11 108.718 148.247C108.356 148.653 107.339 149.634 107.136 149.77C106.839 149.972 106.284 150.423 106.229 150.511C106.198 150.556 105.971 150.751 105.719 150.945C105.471 151.14 105.071 151.454 104.83 151.642C104.592 151.83 104.282 152.052 104.144 152.137C103.761 152.373 103.527 152.53 103.223 152.752C103.072 152.862 102.679 153.09 102.344 153.261C101.941 153.466 101.665 153.634 101.517 153.757C101.262 153.975 100.886 154.177 100.535 154.289C100.021 154.457 99.6625 154.607 99.4074 154.771C98.5456 155.318 97.2736 155.721 95.1743 156.113C92.9716 156.527 92.1615 156.629 91.3825 156.602C90.6724 156.575 90.0002 156.499 89.1418 156.353C87.7216 156.113 87.0322 155.963 86.4531 155.775C86.0911 155.659 85.9222 155.615 85.0915 155.413C84.533 155.28 84.2745 155.154 83.7264 154.747C83.623 154.669 83.4679 154.583 83.3817 154.563C83.0508 154.474 82.4923 154.276 82.2648 154.163C81.9925 154.026 81.6512 153.794 81.5237 153.657C81.4754 153.606 81.2583 153.476 81.0411 153.364C80.262 152.971 80.0104 152.821 79.8001 152.629C79.6484 152.493 79.3313 152.271 78.8487 151.973C78.7177 151.895 78.5006 151.734 78.3627 151.615C78.2282 151.499 77.9869 151.321 77.8284 151.222C77.5836 151.068 76.9562 150.576 76.8528 150.45C76.7873 150.371 76.5047 150.163 76.1875 149.955C75.8601 149.736 75.6877 149.576 75.312 149.135C75.181 148.981 74.9673 148.79 74.7708 148.65C74.3847 148.377 73.7918 147.803 73.5712 147.492C73.3643 147.202 73.0472 146.88 72.768 146.672C72.6439 146.583 72.3957 146.348 72.2164 146.153C72.0372 145.962 71.8269 145.746 71.7511 145.681C71.6752 145.617 71.5374 145.48 71.4408 145.374C71.2512 145.169 70.9341 144.855 70.486 144.435C70.3274 144.284 70.1137 144.069 70.0103 143.953C69.9069 143.84 69.6794 143.629 69.507 143.485C69.3346 143.342 69.1692 143.191 69.1416 143.147C69.114 143.103 68.8658 142.843 68.5935 142.57C68.3212 142.296 67.9903 141.958 67.8558 141.818C67.7248 141.678 67.5111 141.477 67.3836 141.367C67.256 141.258 67.1009 141.097 67.0389 141.009C66.8665 140.756 66.4942 140.356 66.3219 140.24C66.0909 140.083 65.2395 139.246 65.0292 138.969C64.8293 138.706 64.6397 138.522 64.2639 138.225C64.1295 138.119 63.9433 137.941 63.8537 137.835C63.54 137.46 62.2784 136.257 62.0233 136.093C61.9819 136.066 61.8061 135.875 61.6372 135.673C61.4683 135.468 61.2305 135.222 61.1098 135.127C60.9892 135.031 60.7375 134.795 60.5479 134.604C60.3583 134.413 60.055 134.116 59.8757 133.948C59.6965 133.777 59.4655 133.548 59.3621 133.443C59.2587 133.333 59.0726 133.159 58.945 133.06C58.8175 132.961 58.6451 132.797 58.5624 132.701C58.2314 132.312 58.0177 132.104 57.7523 131.899C57.6006 131.779 57.4317 131.625 57.3766 131.55C57.2352 131.366 55.8667 130.02 55.6082 129.815C55.491 129.719 55.2531 129.48 55.0842 129.282C54.9119 129.084 54.7119 128.872 54.6395 128.814C54.5672 128.756 54.4086 128.589 54.2914 128.442C54.1742 128.298 53.9432 128.063 53.7812 127.919C53.6157 127.779 53.3986 127.571 53.2917 127.458C53.1883 127.345 52.9367 127.093 52.7333 126.894C52.2817 126.457 52.2852 126.464 51.6095 125.784C51.3096 125.484 51.0063 125.163 50.9339 125.074C50.8615 124.985 50.6547 124.79 50.472 124.647C50.2858 124.5 50.0824 124.305 50.0169 124.216C49.7653 123.871 49.4895 123.574 49.2482 123.4C48.9104 123.151 48.0107 122.283 47.828 122.027C47.7453 121.914 47.566 121.73 47.4282 121.617C47.0111 121.275 46.8835 121.152 46.7525 120.971C46.5698 120.719 46.263 120.37 46.0941 120.22C46.0148 120.148 45.8907 120.012 45.8218 119.912C45.546 119.544 45.2461 119.192 44.86 118.782C44.4257 118.328 43.757 117.467 43.4605 116.978C43.264 116.657 43.1778 116.541 42.8814 116.193C42.778 116.07 42.616 115.82 42.5263 115.639C42.1885 114.977 41.9714 114.611 41.83 114.451C41.5853 114.181 41.4302 113.925 41.1716 113.351C41.0372 113.05 40.8717 112.705 40.8028 112.582C40.7338 112.459 40.5856 112.121 40.4684 111.831C40.3512 111.54 40.1271 111.031 39.9686 110.703C39.6101 109.962 39.5136 109.617 39.3446 108.483C39.2791 108.022 39.1688 107.332 39.1033 106.946C38.8586 105.542 38.8172 105.163 38.8138 104.483C38.8138 103.742 38.8517 103.424 39.2619 100.811C39.4756 99.4517 39.6101 98.8744 39.81 98.4816C39.9341 98.2322 40.1961 97.6379 40.4684 96.9889C40.5856 96.7054 40.7407 96.3672 40.8166 96.2306C40.889 96.0939 41.0234 95.8104 41.1096 95.5986C41.344 95.0248 41.4853 94.7788 41.7542 94.4714C41.9576 94.2391 42.0472 94.0889 42.3643 93.4433C42.6401 92.8796 42.7814 92.6371 42.9055 92.4971C42.9986 92.3946 43.171 92.1692 43.2882 92.0018C43.7673 91.305 44.7256 90.0889 45.1427 89.6551C45.3185 89.4706 45.5184 89.2315 45.5908 89.1257C45.6598 89.0163 45.8942 88.7499 46.1045 88.5347C46.3147 88.3195 46.5629 88.0394 46.6491 87.913C46.7387 87.7901 46.9145 87.5988 47.0386 87.4861C47.4178 87.1581 47.4799 87.0932 47.6557 86.861C47.9314 86.5057 48.969 85.4946 49.2517 85.3102C49.4344 85.1906 49.5688 85.0642 49.755 84.832C49.8963 84.6577 50.0997 84.4391 50.21 84.3469C50.472 84.1283 50.7822 83.814 52.0197 82.5092C52.1611 82.3623 52.3713 82.1745 52.492 82.0891C52.6092 82.0037 52.7988 81.826 52.9091 81.6894C53.0194 81.5562 53.2159 81.3478 53.3469 81.2248C53.7329 80.8594 54.8981 79.6877 55.1325 79.4315C55.2531 79.2983 55.4427 79.1207 55.553 79.0387C55.884 78.7928 56.0149 78.6698 56.1942 78.4273C56.4148 78.1369 57.4696 77.1054 57.7971 76.8628C57.9453 76.7501 58.1315 76.5657 58.2625 76.3983C58.459 76.1421 59.307 75.2847 60.0722 74.564C60.2411 74.4034 60.4514 74.1951 60.5341 74.1029C60.6203 74.0072 60.8237 73.8091 60.9892 73.6622C61.1546 73.5153 61.3718 73.2899 61.4683 73.1669C61.5683 73.044 61.7579 72.8424 61.8889 72.7194C62.3232 72.3198 63.3332 71.3053 63.509 71.0969C63.7124 70.851 63.8709 70.7007 64.2226 70.4206C64.3673 70.3045 64.5707 70.1063 64.6741 69.9834C64.781 69.8604 65.0292 69.6247 65.2222 69.4539C65.4187 69.2865 65.6876 69.0406 65.8151 68.904C65.9461 68.7673 66.1392 68.6 66.246 68.5316C66.5183 68.3574 66.6355 68.2413 66.9148 67.8758C67.0458 67.7016 67.2664 67.4659 67.4008 67.3498C67.6214 67.1619 68.5418 66.243 69.0451 65.7068C69.1451 65.5974 69.376 65.3993 69.5518 65.2661C69.7345 65.1295 69.9827 64.9006 70.1171 64.7435C70.2481 64.5898 70.4653 64.3746 70.5963 64.2653C70.7307 64.156 70.9548 63.9237 71.0996 63.7495C71.2409 63.5753 71.496 63.3191 71.6615 63.179C71.8304 63.039 72.02 62.8545 72.082 62.776C72.1958 62.6325 72.4302 62.4002 73.0162 61.84C73.3299 61.5394 74.009 60.8187 74.2502 60.5284C74.3364 60.4293 74.5226 60.2551 74.6639 60.1458C75.1155 59.7974 75.1465 59.77 75.405 59.4524C75.5464 59.2748 75.7877 59.0356 75.9635 58.8956C76.1358 58.759 76.3702 58.5301 76.4909 58.39C76.6115 58.2466 76.839 58.0246 76.9976 57.8913C77.1527 57.7615 77.3665 57.5498 77.4699 57.42C77.6664 57.1774 77.9525 56.9076 78.1145 56.8119C78.1696 56.7778 78.3041 56.6548 78.4109 56.5353C78.7419 56.1663 79.0107 55.9067 79.2934 55.6813C79.4416 55.5583 79.614 55.3773 79.6864 55.2714C79.7588 55.1621 79.9794 54.9162 80.1793 54.718C80.3792 54.5199 80.6274 54.2535 80.7308 54.1271C80.8343 54.0007 81.0859 53.7582 81.2893 53.5874C81.4927 53.42 81.6616 53.2663 81.6616 53.2492C81.6616 53.2185 83.0646 51.8214 83.5609 51.3534C83.7023 51.2202 83.8988 51.0289 83.9953 50.9231C84.0918 50.8172 84.2814 50.643 84.4124 50.5371C84.5468 50.4346 84.7467 50.2433 84.8571 50.1169C84.9674 49.9905 85.2362 49.7002 85.4569 49.4747C85.6775 49.2493 85.9532 48.9555 86.067 48.8223C86.1808 48.6891 86.3807 48.5012 86.5117 48.4056C86.6427 48.31 86.915 48.0572 87.1184 47.842C87.3183 47.6268 87.5872 47.3672 87.7147 47.2681C87.8388 47.1656 88.0284 46.9778 88.1353 46.8446C88.4145 46.4961 89.5072 45.3792 89.6899 45.2494C89.9829 45.0444 90.1449 44.8975 90.2897 44.7097C90.3656 44.6072 90.8585 44.0982 91.3825 43.5824C91.903 43.0667 92.3994 42.5611 92.4856 42.4586C92.5717 42.3562 92.782 42.1615 92.9544 42.0248C93.1267 41.8882 93.3577 41.673 93.4714 41.5432C93.5817 41.4168 93.8265 41.147 94.0195 40.9488C94.2091 40.7507 94.4642 40.4809 94.5883 40.3511C94.7124 40.2213 94.9261 40.0402 95.064 39.948C95.1984 39.8592 95.4018 39.6816 95.5121 39.5586C95.7431 39.2888 96.0568 38.9745 96.2808 38.7832C96.3705 38.7081 96.5497 38.5134 96.6841 38.3528C96.8186 38.1889 97.0495 37.9566 97.1978 37.837C97.3494 37.7141 97.608 37.4715 97.7769 37.2973C97.9492 37.1231 98.1905 36.9011 98.3146 36.7986C98.4456 36.6961 98.649 36.4775 98.7835 36.2999C99.0213 35.9891 99.304 35.6987 99.5591 35.5074C99.6314 35.4562 99.7969 35.2854 99.9244 35.1317C100.055 34.9814 100.273 34.7354 100.41 34.5852L100.655 34.3187L100.652 33.9191C100.648 33.2462 100.641 33.2188 100.348 32.9421C100.211 32.8089 99.9899 32.563 99.8624 32.3956C99.6039 32.054 99.5108 31.9618 99.266 31.8013C99.0696 31.668 98.1664 30.8414 97.7769 30.4349C97.6252 30.2744 97.3529 29.9977 97.1736 29.8167C96.9944 29.639 96.7565 29.3726 96.6462 29.2291C96.5359 29.0823 96.367 28.8978 96.2705 28.8192C95.9154 28.5255 95.7155 28.3274 95.5328 28.0848C95.4259 27.9482 95.2398 27.7535 95.1123 27.651C94.8503 27.4461 94.6641 27.2684 94.3642 26.9474C94.2505 26.8244 94.0402 26.6263 93.9023 26.5067C93.7644 26.3872 93.5507 26.1686 93.4301 26.0251C93.3094 25.8816 93.075 25.6528 92.9095 25.523C92.7406 25.3898 92.52 25.1745 92.4166 25.0482C92.3132 24.9184 92.127 24.7203 92.0029 24.6075C91.8789 24.4948 91.6445 24.2625 91.4824 24.0951C91.317 23.9244 91.1205 23.7262 91.0412 23.6511C90.9137 23.5247 90.3311 22.9474 89.9622 22.5785C89.8795 22.4965 89.6761 22.2984 89.5038 22.1345C89.3349 21.9739 89.0867 21.7246 88.9522 21.5845C88.8213 21.4445 88.6006 21.2224 88.4628 21.0961C88.3249 20.9663 88.156 20.7852 88.0836 20.693C88.0043 20.5871 87.8285 20.4402 87.6251 20.307C87.3045 20.0918 87.1287 19.9278 86.5186 19.2618C86.1704 18.8826 85.6809 18.3873 85.319 18.0491C85.1811 17.9159 84.9949 17.7178 84.9088 17.6051C84.8226 17.4924 84.5709 17.2225 84.3503 17.0073C84.1263 16.7921 83.8815 16.5291 83.8057 16.4198C83.7161 16.3002 83.554 16.1499 83.3748 16.0235C83.0714 15.8049 82.8819 15.6205 82.706 15.3677C82.6474 15.2823 82.4406 15.0705 82.2476 14.8929C82.0545 14.7153 81.8132 14.4694 81.7098 14.343C81.6064 14.2166 81.4099 14.0253 81.272 13.9228C81.0204 13.7315 80.7998 13.5129 80.5481 13.2055C80.4758 13.1167 80.3069 12.9561 80.169 12.8502C79.8484 12.5975 78.6833 11.4463 78.4971 11.1936C78.4178 11.0877 78.2558 10.9203 78.1386 10.8178C78.018 10.7188 77.8042 10.5172 77.6629 10.3704C77.101 9.78626 76.9356 9.63254 76.5012 9.28071L76.0496 8.91523L75.5671 8.82641C75.0086 8.72735 74.981 8.72735 74.888 8.79225Z" fill="white"/>
</svg>
